<svg width="19" height="22" viewBox="0 0 19 22" fill="none" xmlns="http://www.w3.org/2000/svg">
<g clip-path="url(#clip0_2_20552)">
<path d="M13.5353 7.15185C14.4609 7.16387 15.3023 7.28407 16.0475 7.75285C17.1654 8.45001 17.9226 9.44767 17.9587 10.7819C18.0308 13.1498 18.0669 15.5298 17.9587 17.8977C17.8625 20.0012 16.1317 21.5518 14.0161 21.5758C10.6986 21.5999 7.36907 21.5999 4.05155 21.5758C1.91199 21.5638 0.193134 20.0132 0.0849535 17.8737C-0.0232265 15.5779 -0.0352465 13.258 0.0729335 10.9622C0.181114 8.77455 1.80381 7.30811 3.97943 7.17589C4.13569 7.16387 4.30397 7.15185 4.52033 7.13983C4.52033 6.22631 4.50831 5.32481 4.52033 4.43533C4.55639 2.39193 5.86657 0.697107 7.80179 0.168227C10.6866 -0.613073 13.4512 1.41831 13.5233 4.41129C13.5474 5.31279 13.5353 6.20227 13.5353 7.15185ZM9.03986 19.7368C10.6746 19.7368 12.3093 19.7488 13.944 19.7368C15.2542 19.7248 16.1918 18.7992 16.1918 17.477C16.2038 15.4216 16.2038 13.3542 16.1918 11.2987C16.1918 9.95251 15.2542 9.01495 13.908 9.01495C10.6505 9.01495 7.39311 9.01495 4.14771 9.01495C2.77743 9.01495 1.85189 9.95251 1.85189 11.3348C1.85189 13.3662 1.85189 15.3855 1.85189 17.4169C1.85189 18.8353 2.76541 19.7368 4.18377 19.7488C5.80647 19.7368 7.41715 19.7368 9.03986 19.7368ZM6.37141 7.12781C8.17441 7.12781 9.91731 7.12781 11.6722 7.12781C11.6722 6.08207 11.7323 5.07239 11.6602 4.06271C11.5641 2.76455 10.3861 1.81497 9.00379 1.82699C7.65755 1.82699 6.47959 2.78859 6.39545 4.06271C6.31131 5.07239 6.37141 6.09409 6.37141 7.12781Z" fill="#303030" stroke="white" stroke-width="0.5"/>
<path d="M8.13767 14.3759C8.13767 14.0514 8.12565 13.7269 8.13767 13.4023C8.16171 12.8855 8.52231 12.5609 9.02715 12.5609C9.53199 12.5609 9.89259 12.8975 9.90461 13.4143C9.92865 14.0634 9.92865 14.7125 9.90461 15.3736C9.89259 15.8664 9.53199 16.1789 9.03917 16.1789C8.52231 16.191 8.17373 15.8784 8.13767 15.3616C8.13767 15.3255 8.13767 15.3015 8.13767 15.2654C8.13767 14.9649 8.13767 14.6764 8.13767 14.3759Z" fill="#303030" stroke="white" stroke-width="0.5"/>
</g>
<defs>
<clipPath id="clip0_2_20552">
<rect width="18.03" height="21.5879" fill="white"/>
</clipPath>
</defs>
</svg>
