<svg width="19" height="19" viewBox="0 0 19 19" fill="none" xmlns="http://www.w3.org/2000/svg">
<path fill-rule="evenodd" clip-rule="evenodd" d="M10.8494 0.988307L17.0641 5.31451C18.0303 5.98769 18.6057 7.08486 18.6064 8.25561V14.6685C18.604 15.687 18.1936 16.6629 17.4654 17.3815C16.7372 18.1 15.7508 18.5024 14.7234 18.5H4.48951C3.46206 18.5024 2.47574 18.1 1.74752 17.3815C1.01931 16.6629 0.608849 15.687 0.606445 14.6685V8.25561C0.607217 7.08486 1.18258 5.98769 2.14878 5.31451L8.3635 0.988307C9.062 0.337231 10.1509 0.337231 10.8494 0.988307ZM16.5031 16.4275C16.9761 15.962 17.2432 15.3292 17.2456 14.6685V8.25561C17.2329 7.53823 16.8756 6.86994 16.2839 6.45677L10.0691 2.13057L9.96935 2.05862C9.87379 1.96193 9.74299 1.90744 9.60645 1.90744C9.4699 1.90744 9.3391 1.96193 9.24354 2.05862L9.14374 2.13057L2.92903 6.45677C2.33732 6.86994 1.98004 7.53823 1.96733 8.25561V14.6685C1.96973 15.3292 2.23681 15.962 2.70981 16.4275C3.18282 16.8931 3.82299 17.1533 4.48951 17.1509H14.7234C15.3899 17.1533 16.0301 16.8931 16.5031 16.4275Z" fill="#303030"/>
<path d="M15.1135 8.60638L10.0873 12.0871C9.93849 12.2347 9.7342 12.3138 9.52391 12.3052C9.31363 12.2967 9.11655 12.2013 8.98043 12.0422L4.09939 8.60638C3.90332 8.43828 3.62793 8.39521 3.38919 8.49533C3.15045 8.59544 2.98982 8.82133 2.97495 9.0779C2.96008 9.33446 3.09354 9.57711 3.31914 9.70367L8.12761 13.1035C8.5219 13.4674 9.04052 13.6698 9.57922 13.6701C10.0859 13.6574 10.5689 13.4549 10.931 13.1035L15.8937 9.6677C16.179 9.45835 16.2541 9.06677 16.0661 8.76828C15.8463 8.46579 15.4224 8.39377 15.1135 8.60638Z" fill="#303030"/>
</svg>
