<svg width="27" height="16" viewBox="0 0 27 16" fill="none" xmlns="http://www.w3.org/2000/svg">
<path d="M18.705 5.28999L21 7.58499L23.295 5.28999L24 5.99999L21 8.99999L18 5.99999L18.705 5.28999Z" fill="#3E4D66"/>
<g clip-path="url(#clip0_2_19396)">
<path fill-rule="evenodd" clip-rule="evenodd" d="M10.6667 9.33333C11.5256 9.33338 12.3514 9.66502 12.9719 10.2591C13.5923 10.8532 13.9594 11.6638 13.9967 12.522L14 12.6667V14C13.9998 14.1699 13.9347 14.3333 13.8181 14.4569C13.7015 14.5805 13.542 14.6548 13.3724 14.6648C13.2028 14.6747 13.0357 14.6195 12.9054 14.5105C12.7751 14.4014 12.6914 14.2467 12.6713 14.078L12.6667 14V12.6667C12.6667 12.1565 12.4718 11.6657 12.1218 11.2945C11.7718 10.9233 11.2933 10.6999 10.784 10.67L10.6667 10.6667H5.33333C4.82319 10.6666 4.33232 10.8615 3.96116 11.2115C3.59 11.5615 3.3666 12.0401 3.33667 12.5493L3.33333 12.6667V14C3.33314 14.1699 3.26808 14.3333 3.15143 14.4569C3.03479 14.5805 2.87536 14.6548 2.70574 14.6648C2.53611 14.6747 2.36908 14.6195 2.23878 14.5105C2.10848 14.4014 2.02474 14.2467 2.00467 14.078L2 14V12.6667C2.00005 11.8077 2.33169 10.9819 2.92577 10.3615C3.51985 9.74107 4.3305 9.37394 5.18867 9.33666L5.33333 9.33333H10.6667ZM8 1.33333C8.88406 1.33333 9.7319 1.68452 10.357 2.30964C10.9821 2.93476 11.3333 3.78261 11.3333 4.66666C11.3333 5.55072 10.9821 6.39856 10.357 7.02368C9.7319 7.64881 8.88406 7.99999 8 7.99999C7.11595 7.99999 6.2681 7.64881 5.64298 7.02368C5.01786 6.39856 4.66667 5.55072 4.66667 4.66666C4.66667 3.78261 5.01786 2.93476 5.64298 2.30964C6.2681 1.68452 7.11595 1.33333 8 1.33333ZM8 2.66666C7.73736 2.66666 7.47728 2.71839 7.23463 2.8189C6.99198 2.91941 6.7715 3.06673 6.58579 3.25245C6.40007 3.43817 6.25275 3.65864 6.15224 3.90129C6.05173 4.14395 6 4.40402 6 4.66666C6 4.92931 6.05173 5.18938 6.15224 5.43203C6.25275 5.67468 6.40007 5.89516 6.58579 6.08087C6.7715 6.26659 6.99198 6.41391 7.23463 6.51442C7.47728 6.61493 7.73736 6.66666 8 6.66666C8.53043 6.66666 9.03914 6.45595 9.41421 6.08087C9.78929 5.7058 10 5.19709 10 4.66666C10 4.13623 9.78929 3.62752 9.41421 3.25245C9.03914 2.87738 8.53043 2.66666 8 2.66666Z" fill="#3E4D66"/>
</g>
<defs>
<clipPath id="clip0_2_19396">
<rect width="16" height="16" fill="white"/>
</clipPath>
</defs>
</svg>
